<svg width="546" height="551" viewBox="0 0 546 551" fill="none" xmlns="http://www.w3.org/2000/svg">
<path fill-rule="evenodd" clip-rule="evenodd" d="M260.729 0.230009C259.355 0.480908 253.972 1.37555 248.769 2.21921C225.067 6.06066 189.956 18.2677 169.255 29.8631C164.307 32.6349 156.659 36.9202 152.26 39.3852C147.862 41.8502 139.833 47.2011 134.418 51.2754C129.004 55.3498 121.853 60.0569 118.528 61.7352C110.114 65.9825 86.5 81.8241 79.2811 88.0646C75.982 90.9164 69.7608 95.8695 65.455 99.0712C53.5334 107.939 47.7431 116.686 30.2051 152.331C23.9739 164.996 21.2007 171.9 19.7671 178.32C18.6944 183.128 16.6869 190.824 15.3083 195.422C13.9287 200.02 12.8 204.849 12.8 206.153C12.8 207.457 11.1605 213.366 9.15608 219.285C6.76176 226.355 5.2282 233.13 4.68436 239.042C4.22949 243.99 3.44471 252.086 2.94086 257.034C-0.260231 288.456 -0.53516 293.556 0.632507 299.892C1.27632 303.387 1.81018 308.443 1.81818 311.128C1.82717 313.814 2.72293 320.901 3.80962 326.878C6.44886 341.396 19.1432 385.68 22.1504 390.857C23.467 393.124 25.9763 399.209 27.7278 404.379C32.6444 418.896 36.3174 425.377 46.1935 436.962C56.0827 448.561 61.8191 454.272 71.7832 462.437C77.0067 466.717 82.6301 471.666 84.2797 473.433C88.9963 478.487 109.97 492.122 124.768 499.754C132.191 503.582 140.739 508.382 143.763 510.421C146.787 512.46 151.887 515.105 155.098 516.298C158.309 517.491 163.932 520.016 167.595 521.909C174.354 525.401 189.154 531.311 198.247 534.147C233.041 545 238.339 546.052 281.078 550.601C291.03 551.66 306.775 549.876 317.975 546.421C321.405 545.362 328.108 543.572 332.871 542.441C337.633 541.312 350.23 536.752 360.863 532.307C371.496 527.863 384.686 522.445 390.174 520.266C416.85 509.676 436.857 497.948 453.35 483.237C476.768 462.35 494.227 445.227 500.075 437.413C511.262 422.465 522.021 399.451 528.323 376.986C534.277 355.763 540.644 330.509 541.618 324.247C544.864 303.392 546.205 252.113 543.766 242.121C543.105 239.418 541.478 230.794 540.151 222.957C538.278 211.904 536.933 207.039 534.149 201.253C532.082 196.957 529.757 189.797 528.663 184.364C526.346 172.844 521.781 160.072 517.284 152.523C515.435 149.419 512.68 143.1 511.163 138.482C507.15 126.269 499.236 111.384 493.296 104.877C483.951 94.639 466.035 80.0158 457.365 75.5496C452.861 73.2286 446.476 69.4411 443.177 67.132C439.878 64.822 434.93 61.6692 432.181 60.1249C429.431 58.5805 424.019 55.1759 420.153 52.5589C416.287 49.942 409.539 46.0375 405.157 43.8804C400.775 41.7243 395.031 38.5755 392.391 36.8842C389.752 35.1919 383.903 32.3581 379.395 30.5858C374.887 28.8135 367.278 25.3929 362.488 22.9858C357.698 20.5788 343.977 15.193 331.997 11.0177C312.671 4.28238 308.807 3.26979 297.719 2.03828C283.668 0.476912 264.507 -0.459713 260.729 0.230009ZM288.794 22.573C298.204 23.3017 302.684 24.2503 312.788 27.651C333.752 34.7081 349.473 41.3414 366.699 50.3978C375.772 55.1669 387.918 61.3754 393.691 64.1932C405.945 70.1738 424.246 81.2333 430.681 86.5462C433.155 88.5884 440.803 94.0002 447.676 98.5714C460.984 107.423 467.936 112.839 476.479 121.009C483.243 127.479 492.795 146.388 500.225 168.015C507.57 189.397 510.83 197.866 515.446 207.554C520.399 217.953 522.173 224.775 523.633 239.042C525.243 254.767 525.34 273.313 523.921 294.02C522.421 315.926 521.287 323.829 518.658 330.721C517.549 333.626 515.923 339.823 515.044 344.493C514.164 349.162 511.985 357.034 510.199 361.986C508.414 366.937 506.394 373.463 505.711 376.486C504.471 381.968 497.264 397.381 493.374 402.869C492.246 404.459 489.262 409.407 486.742 413.864C479.821 426.104 467.466 443.33 461.493 449.07C456.522 453.845 434.006 471.155 423.531 478.254C418.222 481.851 401.144 490.278 388.705 495.438C384.066 497.363 376.609 500.816 372.134 503.112C367.659 505.409 359.226 508.678 353.396 510.376C347.567 512.075 340.694 514.365 338.124 515.466C331.903 518.132 316.53 521.428 310.314 521.428C307.568 521.428 301.698 521.873 297.271 522.415C273.305 525.355 273.962 525.338 262.494 523.343C256.442 522.29 248.505 521.428 244.856 521.428C234.937 521.428 217.142 517.019 199.747 510.25C191.224 506.935 178.403 502.076 171.255 499.452C158.08 494.616 149.911 490.479 137.265 482.242C133.416 479.735 127.295 476.338 123.663 474.694C120.031 473.05 115.308 470.142 113.166 468.231C106.497 462.283 83.5909 444.091 76.9208 439.446C67.7514 433.06 55.8598 414.891 46.5084 392.98C38.2718 373.679 31.5157 347.739 28.8045 325.007C28.2146 320.059 27.045 311.063 26.2062 305.015C24.2048 290.589 25.6334 253.762 28.7075 240.541C29.7932 235.868 31.1808 228.026 31.7896 223.115C32.3984 218.203 34.165 210.331 35.7165 205.622C37.2671 200.912 38.8736 195.056 39.2865 192.608C39.6984 190.161 40.816 186.338 41.7688 184.112C42.7225 181.887 44.729 176.467 46.2295 172.069C47.7301 167.67 50.7172 160.779 52.8686 156.756C55.019 152.732 57.9592 146.49 59.4018 142.885C61.7591 136.994 64.5503 132.977 82.3802 109.823C85.9412 105.199 97.001 97.1579 113.271 87.3659C120.969 82.7328 130.54 76.8381 134.541 74.2662C150.278 64.1492 180.863 49.3052 197.813 43.5585C203.001 41.8002 211.518 38.4556 216.742 36.1255C230.292 30.084 261.397 22.3931 274.725 21.7903C276.1 21.7273 282.431 22.0802 288.794 22.573ZM261.229 40.2419C260.13 40.5328 254.1 41.9002 247.83 43.2797C241.561 44.6591 229.659 47.9997 221.384 50.7017C213.107 53.4046 205.822 55.6157 205.195 55.6157C204.568 55.6157 203.248 56.5083 202.261 57.5989C200.667 59.3602 200.592 60.2228 201.602 65.3457C202.228 68.5155 203.222 73.9833 203.812 77.4959C204.401 81.0084 206.234 87.6118 207.883 92.1699C212.345 104.501 215.945 106.067 233.106 103.145C240.687 101.853 249.601 101.475 273.041 101.45C289.638 101.432 305.295 101.839 307.834 102.354C318.29 104.472 322.178 101.649 326.547 88.7673C328.162 84.0032 331.138 75.8915 333.16 70.7406C337.488 59.715 337.911 54.5271 334.758 51.1705C332.021 48.2566 323.738 45.9896 312.715 45.1349C308.041 44.773 300.843 43.5835 296.719 42.493C289.338 40.5397 265.756 39.0444 261.229 40.2419ZM358.701 69.8729C354.062 72.251 346.241 84.0942 341.842 95.4036C339.554 101.284 337.688 107.122 337.695 108.376C337.728 114.502 343.868 122.791 353.819 130.147C358.473 133.586 366.515 144.271 370.703 152.577C375.095 161.286 382.602 172.088 385.416 173.747C387.943 175.237 393.302 175.461 433.357 175.746C476.116 176.05 478.56 175.971 480.504 174.214C485.371 169.814 484.091 163.69 476.711 156.075C474.048 153.326 468.588 146.354 464.58 140.581C456.228 128.551 444.288 113.392 439.943 109.3C437.136 106.656 430.483 102.956 395.191 84.4091C366.146 69.1452 362.756 67.7948 358.701 69.8729ZM159.758 79.3921C137.48 90.5526 135.123 91.979 120.769 102.978C97.3919 120.891 82.6331 137.202 74.8734 153.697C73.1608 157.338 70.1907 162.372 68.2722 164.883C65.8659 168.034 64.7852 170.505 64.7852 172.853C64.7852 178.554 66.7766 179.468 78.7932 179.283C84.5596 179.194 100.408 179.486 114.01 179.932C138.138 180.722 138.825 180.69 142.149 178.637C144.023 177.479 146.257 175.461 147.114 174.153C147.971 172.845 153.091 167.118 158.492 161.426C172.254 146.921 178.156 139.575 182.717 131.274C184.888 127.322 188.703 121.196 191.194 117.663C197.604 108.569 197.75 106.694 192.96 94.9108C190.766 89.517 188.244 82.5468 187.352 79.4221C185.926 74.4171 182.238 69.586 179.867 69.618C179.529 69.623 170.48 74.0212 159.758 79.3921ZM274.725 117.68C241.127 118.506 222.699 120.372 214.661 123.758C209.187 126.065 201.398 133.863 192.865 145.579C189.461 150.253 184.708 156.55 182.304 159.574C177.438 165.694 168.031 181.711 167.058 185.532C166.696 186.954 167.166 189.921 168.168 192.529C169.123 195.02 170.289 198.858 170.757 201.057C171.225 203.256 173.215 208.542 175.181 212.802C177.145 217.063 180.262 223.834 182.109 227.848C185.504 235.234 190.393 241.745 193.99 243.669C198.574 246.123 237.563 246.513 294.22 244.672C311.815 244.101 328.586 243.122 331.488 242.498C339.225 240.834 341.872 237.998 348.612 224.156C351.897 217.41 357.584 207.88 361.249 202.976C368.248 193.614 369.698 190.896 369.698 187.153C369.698 184.209 363.463 174.599 353.567 162.289C349.243 156.91 344.525 150.163 343.086 147.295C340.469 142.086 331.056 129.642 327.234 126.338C323.331 122.965 310.945 116.593 308.593 116.748C307.286 116.834 292.045 117.254 274.725 117.68ZM406.363 190.635C395.372 191.681 386.99 194.659 385.721 197.968C385.281 199.117 382.496 203.431 379.533 207.554C376.569 211.678 372.41 217.975 370.288 221.549C368.168 225.122 364.264 231.42 361.614 235.543C355.36 245.271 354.626 249.551 357.983 256.697C359.361 259.631 362.294 263.9 364.5 266.183C366.705 268.465 370.787 274.762 373.57 280.177C380.572 293.797 393.449 312.525 397.36 314.776C399.671 316.107 404.005 316.838 413.356 317.478C420.41 317.961 430.006 319.254 434.68 320.354C439.353 321.453 446.551 322.822 450.675 323.397C454.799 323.97 464.464 326.03 472.153 327.972C487.718 331.905 490.494 332.161 494.594 330.041C501.386 326.529 504.66 318.844 504.66 306.413C504.66 303.112 505.448 297.174 506.409 293.217C507.792 287.533 508.159 281.616 508.159 265.031C508.159 241.744 507.4 237.209 499.882 215.6C493.989 198.661 490.421 196.12 470.324 194.55C463.641 194.027 454.425 192.93 449.844 192.113C438.888 190.157 418.625 189.468 406.363 190.635ZM119.27 195.281C117.62 195.431 112.896 196.064 108.773 196.687C104.649 197.31 92.2774 197.788 81.2805 197.75C68.2852 197.705 60.0616 198.097 57.7872 198.869C54.3222 200.045 54.2732 200.144 52.7247 209.054C51.8649 214.002 49.9684 221.89 48.5099 226.582C45.4197 236.522 41.8648 259.104 40.8051 275.527C40.3292 282.895 40.5741 294.558 41.4859 308.014C42.7075 326.039 43.1744 329.276 44.7919 330.919C47.4252 333.596 52.5187 333.167 59.5027 329.681C68.9301 324.975 115.769 311.71 126.268 310.774C129.567 310.479 133.861 309.438 135.81 308.461C141.28 305.717 153.453 291.339 160.306 279.525C162.379 275.952 166 270.473 168.353 267.351C170.705 264.229 173.372 260.238 174.28 258.483C177.397 252.457 174.381 245.008 163.981 233.044C160.157 228.646 156.116 223.248 155.001 221.049C153.884 218.85 150.995 214.352 148.579 211.053C146.164 207.754 143.187 203.419 141.963 201.419C140.741 199.42 139.014 197.182 138.127 196.445C136.614 195.189 126.882 194.589 119.27 195.281ZM245.977 265.591C219.993 265.991 197.617 266.598 196.253 266.939C194.696 267.33 193.017 269.044 191.744 271.54C188.64 277.623 172.908 301.39 168.262 307.014C160.911 315.915 155.759 323.78 155.759 326.105C155.759 330.285 157.661 333.453 166.353 343.757C171.104 349.387 175.539 354.895 176.207 355.995C186.503 372.92 191.865 379.45 198.202 382.776C202.185 384.866 202.963 384.893 249.774 384.591C283.042 384.377 301.227 384.668 310.379 385.564L323.456 386.842L329.133 384.064C333.342 382.006 336.026 379.704 339.508 375.169C342.091 371.803 346.71 366.497 349.771 363.379C352.832 360.26 357.556 354.916 360.268 351.502C362.98 348.089 367.111 342.899 369.446 339.969C378.013 329.224 377.803 324.085 368.247 310.673C366.421 308.111 363.085 302.416 360.833 298.018C353.664 284.015 346.045 271.112 343.348 268.408C341.91 266.966 339.322 265.504 337.596 265.159C334.05 264.449 314.068 264.544 245.977 265.591ZM395.477 329.81C394.22 331.168 391.522 334.916 389.482 338.139C387.442 341.362 383.057 347.056 379.737 350.792C376.417 354.528 372.961 359.026 372.056 360.788C369.266 366.213 362.637 375.694 357.232 381.984C349.687 390.766 348.704 392.495 348.704 397.004C348.704 402.491 352.422 409.635 359.589 417.923C362.825 421.664 367.566 428.245 370.125 432.548C372.684 436.849 376.377 442.282 378.331 444.62C380.284 446.958 383.813 452.714 386.173 457.411C390.9 466.82 394.833 471.448 398.103 471.448C399.281 471.448 402.605 469.674 405.492 467.505C408.379 465.335 414.193 461.656 418.411 459.328C422.633 456.997 429.474 451.896 433.63 447.979C437.781 444.066 443.453 439.087 446.233 436.914C451.411 432.869 459.941 423.991 467.487 414.793C469.823 411.947 474.661 403.4 478.238 395.801C481.815 388.202 485.805 379.96 487.104 377.486C490.089 371.799 492.663 363.132 492.663 358.764C492.663 354.544 488.884 350.785 483.794 349.94C475.405 348.55 462.994 345.121 456.788 342.48C446.712 338.194 416.417 330.181 401.975 327.984C398.329 327.429 397.455 327.674 395.477 329.81ZM116.77 335.056C113.746 335.816 108.348 336.912 104.774 337.493C101.2 338.073 91.9775 340.507 84.2797 342.9C76.5819 345.293 68.0463 347.782 65.3121 348.43C62.5779 349.078 58.0792 350.826 55.3149 352.314L50.2894 355.02L50.3253 360.14C50.3543 364.187 51.1021 366.487 53.8933 371.122C55.8358 374.347 58.642 379.91 60.1286 383.483C61.6151 387.057 65.554 393.767 68.881 398.394C72.2081 403.023 76.8088 410.087 79.1052 414.093C87.5198 428.774 96.2882 436.676 127.717 457.902C141.301 467.078 142.402 467.628 146.177 467.121C150.809 466.5 152.076 465.091 154.335 458.054C156.249 452.092 160.703 444.228 173.068 424.983C183.617 408.563 184.752 406.112 184.747 399.759C184.742 393.65 183.112 391.009 170.394 376.52C155.986 360.106 151.009 354.131 143.834 344.647C135.24 333.286 130.499 331.605 116.77 335.056ZM251.732 404.62C246.508 404.975 237.055 405.026 230.724 404.733C217.881 404.14 202.511 405.852 200.234 408.13C199.443 408.92 197.997 411.902 197.022 414.755C194.133 423.202 186.11 439.065 179.782 448.836C172.666 459.825 167.752 470.059 167.039 475.373C166.264 481.145 169.311 483.768 179.357 485.978C183.698 486.933 193.773 489.878 201.746 492.522C219.522 498.415 244.277 504.795 255.912 506.479C273.681 509.051 314.041 504.394 333.709 497.503C336.733 496.443 345.505 493.92 353.203 491.897C373.232 486.631 376.696 484.528 376.696 477.634C376.696 471.943 369.811 459.136 360.742 447.957C357.62 444.109 353.037 437.137 350.559 432.464C345.331 422.609 336.475 410.522 333.175 408.739C327.992 405.938 313.201 404.488 287.222 404.232C272.926 404.09 256.955 404.265 251.732 404.62Z" fill="white"/>
</svg>
